<svg xmlns="http://www.w3.org/2000/svg" xmlns:xlink="http://www.w3.org/1999/xlink" width="1500" zoomAndPan="magnify" viewBox="0 0 1125 1124.99995" height="1500" preserveAspectRatio="xMidYMid meet" version="1.0"><defs><g/><clipPath id="a2698d994a"><path d="M 378.921875 172.550781 L 818.421875 172.550781 L 818.421875 681.800781 L 378.921875 681.800781 Z M 378.921875 172.550781 " clip-rule="nonzero"/></clipPath></defs><rect x="-112.5" width="1350" fill="#ffffff" y="-112.499995" height="1349.99994" fill-opacity="1"/><rect x="-112.5" width="1350" fill="#ffffff" y="-112.499995" height="1349.99994" fill-opacity="1"/><g clip-path="url(#a2698d994a)"><path fill="#037b80" d="M 817.613281 265.601562 C 817.289062 265.410156 816.941406 265.316406 816.566406 265.316406 C 816.191406 265.316406 815.84375 265.410156 815.523438 265.601562 L 814.535156 266.207031 L 642.390625 172.550781 L 642.390625 373.605469 L 557.199219 320.566406 L 557.199219 211.027344 C 557.207031 210.648438 557.121094 210.296875 556.933594 209.972656 C 556.746094 209.644531 556.492188 209.386719 556.164062 209.203125 C 555.835938 209.019531 555.480469 208.933594 555.105469 208.945312 C 554.730469 208.957031 554.382812 209.0625 554.066406 209.265625 L 379.945312 317.789062 C 379.644531 317.980469 379.40625 318.230469 379.238281 318.542969 C 379.066406 318.859375 378.980469 319.191406 378.984375 319.546875 L 378.984375 625.992188 C 378.988281 626.363281 379.085938 626.710938 379.269531 627.035156 C 379.457031 627.355469 379.707031 627.613281 380.027344 627.804688 C 380.347656 627.96875 380.6875 628.050781 381.046875 628.050781 C 381.429688 628.046875 381.785156 627.945312 382.117188 627.75 L 468.65625 573.777344 L 641.292969 681.421875 L 641.457031 681.421875 C 641.753906 681.5625 642.0625 681.636719 642.390625 681.640625 C 642.710938 681.636719 643.011719 681.5625 643.296875 681.421875 L 643.464844 681.421875 L 817.695312 572.789062 C 818 572.601562 818.242188 572.351562 818.417969 572.039062 C 818.59375 571.726562 818.683594 571.386719 818.683594 571.027344 L 818.683594 267.390625 C 818.679688 267.015625 818.582031 266.671875 818.390625 266.351562 C 818.199219 266.03125 817.9375 265.78125 817.613281 265.601562 Z M 640.332031 377.175781 L 640.332031 676.035156 L 584.160156 640.996094 L 584.160156 485.835938 L 557.308594 469.347656 L 557.308594 325.429688 Z M 526.394531 532.996094 L 470.195312 568.007812 L 470.195312 271.210938 L 553.214844 322.847656 L 553.214844 466.601562 L 526.394531 449.863281 Z M 553.214844 318.011719 L 470.304688 266.316406 L 553.214844 214.597656 Z M 383.078125 320.757812 L 466.097656 268.929688 L 466.097656 570.5625 L 383.078125 622.335938 Z M 526.394531 537.859375 L 526.394531 605.023438 L 472.421875 571.414062 Z M 814.5625 569.957031 L 644.425781 676.035156 L 644.425781 377.175781 L 814.5625 271.097656 Z M 767.84375 423.703125 L 734.867188 444.5625 L 734.867188 393.117188 L 767.84375 372.257812 Z M 767.84375 487.707031 L 734.867188 508.535156 L 734.867188 455.609375 L 767.84375 434.75 Z M 725.632812 450.386719 L 691.199219 472.097656 L 691.199219 420.734375 L 725.632812 398.941406 Z M 725.632812 514.390625 L 691.199219 536.183594 L 691.199219 483.089844 L 725.632812 461.296875 Z M 725.632812 514.390625 " fill-opacity="1" fill-rule="nonzero"/></g><g fill="#4b4949" fill-opacity="1"><g transform="translate(188.667958, 820.268894)"><g><path d="M 23.359375 -88.828125 L 52.703125 -88.828125 C 64.960938 -88.828125 73.535156 -86.335938 78.421875 -81.359375 C 83.316406 -76.378906 84.703125 -69.171875 82.578125 -59.734375 C 80.359375 -50.203125 75.65625 -42.796875 68.46875 -37.515625 C 61.28125 -32.242188 51.984375 -29.609375 40.578125 -29.609375 L 26.546875 -29.609375 L 19.78125 0 L 2.9375 0 Z M 42.625 -44.28125 C 49.007812 -44.28125 53.96875 -45.425781 57.5 -47.71875 C 61.03125 -50.019531 63.429688 -53.894531 64.703125 -59.34375 C 65.898438 -64.625 65.265625 -68.367188 62.796875 -70.578125 C 60.328125 -72.785156 55.816406 -73.890625 49.265625 -73.890625 L 36.75 -73.890625 L 29.984375 -44.28125 Z M 42.625 -44.28125 "/></g></g></g><g fill="#4b4949" fill-opacity="1"><g transform="translate(272.894949, 820.268894)"><g><path d="M 54.75 -68.15625 L 50.921875 -51.5625 L 48.75 -51.5625 C 42.113281 -51.5625 36.285156 -49.734375 31.265625 -46.078125 L 20.546875 0 L 3.703125 0 L 15.703125 -51.8125 L 16.34375 -66.625 L 33.1875 -66.625 L 32.796875 -57.8125 C 36.453125 -61.644531 39.617188 -64.328125 42.296875 -65.859375 C 44.984375 -67.390625 47.734375 -68.15625 50.546875 -68.15625 Z M 54.75 -68.15625 "/></g></g></g><g fill="#4b4949" fill-opacity="1"><g transform="translate(326.493945, 820.268894)"><g><path d="M 32.796875 1.53125 C 26.078125 1.53125 20.484375 0.109375 16.015625 -2.734375 C 11.546875 -5.585938 8.546875 -9.648438 7.015625 -14.921875 C 5.484375 -20.203125 5.523438 -26.332031 7.140625 -33.3125 C 8.765625 -40.289062 11.570312 -46.414062 15.5625 -51.6875 C 19.5625 -56.957031 24.429688 -61.019531 30.171875 -63.875 C 35.921875 -66.726562 42.15625 -68.15625 48.875 -68.15625 C 55.601562 -68.15625 61.195312 -66.726562 65.65625 -63.875 C 70.125 -61.019531 73.125 -56.957031 74.65625 -51.6875 C 76.1875 -46.414062 76.144531 -40.289062 74.53125 -33.3125 C 72.914062 -26.332031 70.109375 -20.203125 66.109375 -14.921875 C 62.109375 -9.648438 57.234375 -5.585938 51.484375 -2.734375 C 45.742188 0.109375 39.515625 1.53125 32.796875 1.53125 Z M 35.984375 -12.375 C 41.003906 -12.375 45.34375 -14.179688 49 -17.796875 C 52.664062 -21.421875 55.265625 -26.59375 56.796875 -33.3125 C 58.328125 -40.113281 58.113281 -45.300781 56.15625 -48.875 C 54.195312 -52.445312 50.707031 -54.234375 45.6875 -54.234375 C 40.664062 -54.234375 36.328125 -52.445312 32.671875 -48.875 C 29.015625 -45.300781 26.421875 -40.113281 24.890625 -33.3125 C 23.359375 -26.59375 23.566406 -21.421875 25.515625 -17.796875 C 27.472656 -14.179688 30.960938 -12.375 35.984375 -12.375 Z M 35.984375 -12.375 "/></g></g></g><g fill="#4b4949" fill-opacity="1"><g transform="translate(408.1686, 820.268894)"><g><path d="M 60.234375 -68.03125 C 65.253906 -68.03125 69.378906 -66.601562 72.609375 -63.75 C 75.847656 -60.894531 77.957031 -56.894531 78.9375 -51.75 C 79.914062 -46.601562 79.640625 -40.671875 78.109375 -33.953125 C 76.578125 -27.316406 73.894531 -21.296875 70.0625 -15.890625 C 66.238281 -10.484375 61.726562 -6.226562 56.53125 -3.125 C 51.34375 -0.0195312 45.941406 1.53125 40.328125 1.53125 C 33.515625 1.53125 27.8125 0.125 23.21875 -2.6875 L 15.828125 29.609375 L -1.03125 29.609375 L 17.734375 -51.8125 L 18.375 -66.625 L 33.8125 -66.625 L 34.328125 -57.171875 C 38.160156 -60.660156 42.328125 -63.34375 46.828125 -65.21875 C 51.335938 -67.09375 55.804688 -68.03125 60.234375 -68.03125 Z M 40.203125 -12.375 C 50.328125 -12.375 57.003906 -19.476562 60.234375 -33.6875 C 61.765625 -40.238281 61.929688 -45.300781 60.734375 -48.875 C 59.546875 -52.445312 57.039062 -54.234375 53.21875 -54.234375 C 47.09375 -54.234375 40.367188 -51.257812 33.046875 -45.3125 L 25.90625 -14.421875 C 31.09375 -13.054688 35.859375 -12.375 40.203125 -12.375 Z M 40.203125 -12.375 "/></g></g></g><g fill="#4b4949" fill-opacity="1"><g transform="translate(489.843238, 820.268894)"><g><path d="M 69.046875 -28.203125 L 22.71875 -28.203125 C 22.207031 -23.097656 23.1875 -19.179688 25.65625 -16.453125 C 28.125 -13.734375 31.953125 -12.375 37.140625 -12.375 C 40.960938 -12.375 45.273438 -13.078125 50.078125 -14.484375 C 54.890625 -15.890625 59.46875 -17.828125 63.8125 -20.296875 L 64.328125 -20.296875 L 61.265625 -6.640625 C 57.265625 -4.003906 52.898438 -1.984375 48.171875 -0.578125 C 43.453125 0.828125 38.671875 1.53125 33.828125 1.53125 C 26.847656 1.53125 21.082031 0.128906 16.53125 -2.671875 C 11.976562 -5.484375 8.914062 -9.523438 7.34375 -14.796875 C 5.769531 -20.078125 5.789062 -26.25 7.40625 -33.3125 C 9.019531 -40.195312 11.757812 -46.273438 15.625 -51.546875 C 19.5 -56.828125 24.203125 -60.914062 29.734375 -63.8125 C 35.265625 -66.707031 41.222656 -68.15625 47.609375 -68.15625 C 53.816406 -68.15625 58.921875 -66.75 62.921875 -63.9375 C 66.921875 -61.132812 69.535156 -57.09375 70.765625 -51.8125 C 72.003906 -46.539062 71.8125 -40.375 70.1875 -33.3125 Z M 44.546875 -54.625 C 40.546875 -54.625 36.882812 -53.300781 33.5625 -50.65625 C 30.25 -48.019531 27.613281 -44.363281 25.65625 -39.6875 L 54.375 -39.6875 C 54.789062 -44.539062 54.191406 -48.242188 52.578125 -50.796875 C 50.960938 -53.347656 48.285156 -54.625 44.546875 -54.625 Z M 44.546875 -54.625 "/></g></g></g><g fill="#4b4949" fill-opacity="1"><g transform="translate(566.41325, 820.268894)"><g><path d="M 54.75 -68.15625 L 50.921875 -51.5625 L 48.75 -51.5625 C 42.113281 -51.5625 36.285156 -49.734375 31.265625 -46.078125 L 20.546875 0 L 3.703125 0 L 15.703125 -51.8125 L 16.34375 -66.625 L 33.1875 -66.625 L 32.796875 -57.8125 C 36.453125 -61.644531 39.617188 -64.328125 42.296875 -65.859375 C 44.984375 -67.390625 47.734375 -68.15625 50.546875 -68.15625 Z M 54.75 -68.15625 "/></g></g></g><g fill="#4b4949" fill-opacity="1"><g transform="translate(620.012245, 820.268894)"><g><path d="M 35.09375 -66.625 L 50.40625 -66.625 L 47.609375 -54.109375 L 32.296875 -54.109375 L 24.765625 -21.953125 C 23.316406 -15.484375 25.054688 -12.25 29.984375 -12.25 C 32.285156 -12.25 35.140625 -13.054688 38.546875 -14.671875 L 35.359375 -0.765625 C 33.054688 0.00390625 30.945312 0.578125 29.03125 0.953125 C 27.113281 1.335938 25.007812 1.53125 22.71875 1.53125 C 9.269531 1.53125 4.332031 -6.296875 7.90625 -21.953125 L 15.4375 -54.109375 L 5.75 -54.109375 L 8.546875 -66.625 L 18.25 -66.625 L 22.328125 -84.484375 L 40.578125 -90.359375 Z M 35.09375 -66.625 "/></g></g></g><g fill="#4b4949" fill-opacity="1"><g transform="translate(671.05892, 820.268894)"><g><path d="M 81.9375 -66.625 L 21.5625 29.609375 L 5.609375 29.609375 L 22.84375 2.171875 L 11.734375 -66.625 L 28.84375 -66.625 L 36.125 -17.875 L 65.09375 -66.625 Z M 81.9375 -66.625 "/></g></g></g><g fill="#148084" fill-opacity="1"><g transform="translate(727.714728, 899.641676)"><g><path d="M 0.671875 -64.46875 C 0.875 -64.65625 0.875 -65.140625 0.875 -65.421875 C 0.671875 -65.234375 0.296875 -63.78125 0.671875 -64.46875 Z M 45.0625 -42.359375 C 42.5625 -39.765625 34.25 -30.015625 32.8125 -29.046875 C 31.359375 -27.796875 29.046875 -25.765625 27.703125 -24.515625 C 27.21875 -24.3125 27.984375 -23.9375 28.171875 -24.3125 C 28.28125 -24.515625 28.46875 -24.515625 28.75 -24.515625 C 29.34375 -24.3125 28.859375 -25.1875 29.53125 -25.1875 C 30.203125 -25.28125 30.6875 -25.46875 30.6875 -25.765625 C 30.6875 -25.953125 30.78125 -25.953125 30.875 -25.953125 C 30.96875 -25.859375 31.359375 -26.0625 31.65625 -26.4375 C 32.03125 -26.921875 33.296875 -27.59375 33.390625 -28.171875 C 33.390625 -28.375 33.578125 -28.46875 33.78125 -28.5625 C 34.453125 -28.65625 33.296875 -28.5625 33.484375 -28.859375 C 33.484375 -28.953125 33.671875 -28.953125 33.875 -28.953125 C 34.15625 -28.859375 35.21875 -29.53125 35.21875 -29.921875 C 35.21875 -30.015625 35.3125 -30.203125 35.515625 -30.203125 C 35.796875 -30.203125 36.09375 -31.75 36.375 -31.5625 C 36.859375 -31.5625 36.859375 -32.609375 37.4375 -32.421875 C 38.015625 -32.328125 38.015625 -32.90625 37.734375 -33 C 37.53125 -33.09375 37.734375 -33.875 38.015625 -33.296875 C 38.3125 -32.90625 38.3125 -33 38.703125 -33.390625 C 39.171875 -34.0625 38.890625 -34.15625 39.65625 -34.734375 C 40.34375 -35.125 40.53125 -35.609375 39.953125 -35.421875 C 39.859375 -35.3125 39.65625 -35.3125 39.65625 -35.421875 C 39.65625 -35.796875 40.625 -36.578125 41.015625 -36.578125 C 41.203125 -36.578125 41.296875 -36.671875 41.296875 -36.765625 C 41.6875 -37.53125 43.625 -39.375 43.421875 -40.046875 C 43.421875 -40.234375 43.515625 -40.34375 43.625 -40.34375 C 44 -40.4375 45.734375 -41.984375 45.0625 -42.359375 Z M 26.4375 -23.640625 C 25.765625 -23.0625 23.9375 -22.1875 22.96875 -21.234375 C 22.578125 -20.75 21.71875 -20.546875 22.578125 -20.359375 C 23.0625 -20.359375 22.875 -20.75 23.25 -20.65625 C 23.453125 -20.546875 23.546875 -20.65625 23.453125 -20.84375 C 23.359375 -21.140625 23.359375 -21.140625 23.453125 -21.03125 C 23.828125 -20.84375 24.703125 -21.140625 24.609375 -21.515625 C 24.609375 -22.390625 26.25 -21.8125 26.0625 -22.296875 C 25.765625 -22.578125 27.40625 -23.734375 27.40625 -23.9375 C 27.3125 -24.3125 26.828125 -24.125 26.4375 -23.640625 Z M 62.71875 -92.0625 C 60.796875 -93.890625 61.1875 -94.1875 58.859375 -95.4375 C 56.0625 -96.109375 53.75 -97.078125 50.65625 -97.265625 C 39.65625 -98.53125 26.828125 -84.25 18.71875 -72.953125 C 12.640625 -65.234375 7.4375 -56.640625 2.515625 -47.765625 C 2.984375 -51.140625 5.40625 -55.78125 6.84375 -59.34375 C 8.875 -64.65625 11.09375 -70.15625 13.609375 -74.59375 C 15.640625 -78.359375 21.03125 -83.765625 15.15625 -86.953125 C 14.375 -87.046875 12.15625 -88.78125 11.390625 -88.484375 C 11 -88.484375 10.328125 -88.59375 9.9375 -88.6875 C 9.359375 -88.96875 9.265625 -88.875 7.8125 -88.203125 C 5.59375 -87.234375 5.890625 -86.84375 5.59375 -85.40625 C 4.4375 -83.671875 -0.296875 -72.765625 -2.40625 -67.75 C -7.90625 -55.578125 -12.15625 -43.03125 -15.828125 -30.59375 C -16.40625 -27.703125 -18.046875 -23.359375 -18.328125 -20.75 C -18.234375 -19.875 -18.71875 -20.078125 -18.625 -19.390625 C -18.53125 -19.109375 -18.625 -18.90625 -18.71875 -18.90625 C -19.109375 -19.109375 -18.625 -17.46875 -18.8125 -17.75 C -19.015625 -18.140625 -19.203125 -17.75 -19.109375 -16.984375 C -19.015625 -16.5 -19.015625 -16.40625 -19.203125 -16.59375 C -19.390625 -16.890625 -19.390625 -16.796875 -19.296875 -16.3125 C -19.109375 -15.828125 -19.203125 -15.734375 -19.390625 -15.828125 C -19.59375 -15.828125 -19.6875 -15.734375 -19.78125 -15.15625 C -19.875 -14.1875 -20.453125 -13.125 -20.453125 -12.359375 C -20.078125 -11.578125 -20.171875 -12.828125 -19.96875 -12.9375 C -19.78125 -13.125 -19.78125 -12.734375 -20.171875 -11.765625 C -20.359375 -10.609375 -20.65625 -12.546875 -20.65625 -11.578125 C -20.65625 -11.390625 -20.75 -11.09375 -20.84375 -11.09375 C -21.03125 -11 -20.84375 -9.65625 -21.140625 -9.546875 C -21.234375 -9.453125 -21.234375 -9.265625 -21.234375 -9.078125 C -21.03125 -8.484375 -21.71875 -7.53125 -21.71875 -6.84375 C -24.609375 8.015625 -27.890625 20.9375 -27.3125 37.4375 C -27.3125 37.4375 -27.015625 43.140625 -27.015625 43.140625 C -26.25 44.296875 -26.0625 46.03125 -25.28125 46.90625 C -24.703125 47.484375 -24.421875 48.15625 -23.640625 48.4375 C -23.15625 48.640625 -22.390625 49.890625 -21.609375 49.5 C -20.84375 49.125 -19.96875 50.46875 -19.390625 50.1875 C -17.953125 49.890625 -18.328125 49.890625 -17.5625 48.640625 C -17.953125 36.09375 -15.15625 23.546875 -12.25 11.671875 C -11.390625 9.359375 -10.421875 4.625 -9.546875 2.703125 C -9.265625 2.3125 -9.078125 1.9375 -9.078125 1.734375 C -8.875 0 -8.109375 -2.03125 -7.328125 -4.34375 C -5.796875 -9.65625 -5.3125 -8.78125 -4.046875 -13.03125 C -3.765625 -14.1875 -2.796875 -15.921875 -2.21875 -17.375 C 8.296875 -8.484375 25.1875 -17.171875 33.96875 -24.703125 C 38.796875 -29.046875 46.421875 -36.765625 50.078125 -43.328125 C 52.875 -46.703125 56.265625 -53.359375 58.09375 -55.96875 C 59.4375 -56.734375 61.765625 -63.296875 62.828125 -65.046875 C 66.203125 -72.765625 69.28125 -84.828125 62.71875 -92.0625 Z M -1.546875 -60.984375 C -1.34375 -61.765625 3.859375 -74.59375 2.890625 -69.96875 C 1.828125 -67.0625 3.671875 -69.765625 3.28125 -68.515625 C 3.09375 -67.75 2.703125 -66.875 2.703125 -66.203125 C 2.703125 -65.71875 2.609375 -65.421875 2.21875 -65.140625 C 1.546875 -64.5625 0.390625 -62.828125 0.484375 -62.4375 C -0.296875 -61.765625 -0.96875 -61.46875 -1.640625 -59.4375 C -2.21875 -57.90625 -2.703125 -57.21875 -2.890625 -55.484375 C -2.796875 -55 -3.46875 -54.625 -3.1875 -54.234375 C -2.890625 -54.046875 -3.1875 -53.171875 -3.46875 -53.171875 C -3.578125 -53.171875 -3.671875 -53.078125 -3.578125 -52.984375 C -3.671875 -52.6875 -4.34375 -52.109375 -4.15625 -51.625 C -4.046875 -51.140625 -4.734375 -50.953125 -4.53125 -50.375 C -4.4375 -49.984375 -4.734375 -49.125 -5.21875 -49.796875 C -5.890625 -52.015625 -2.515625 -58.28125 -1.546875 -60.984375 Z M -0.578125 -60.3125 C -0.765625 -60.21875 -1.0625 -60.890625 -0.671875 -60.890625 C -0.390625 -60.890625 -0.296875 -60.3125 -0.578125 -60.3125 Z M -5.40625 -48.734375 C -5.40625 -47.484375 -6.171875 -45.84375 -6.65625 -44.78125 C -6.5625 -44.578125 -6.75 -44.296875 -6.953125 -44.203125 C -7.53125 -43.90625 -6.46875 -43.421875 -6.84375 -43.140625 C -7.046875 -42.9375 -7.046875 -42.9375 -7.140625 -43.234375 C -7.046875 -43.90625 -8.015625 -42.75 -7.71875 -42.5625 C -7.625 -42.453125 -7.71875 -42.359375 -7.90625 -42.359375 C -8.296875 -42.359375 -8.109375 -41.6875 -8.390625 -41.5 C -8.875 -41.015625 -7.71875 -41.203125 -8.484375 -40.71875 C -9.359375 -40.625 -9.078125 -35.21875 -10.328125 -35.421875 C -9.75 -37.0625 -10.234375 -37.53125 -9.171875 -40.34375 C -8.875 -40.8125 -8.484375 -43.421875 -7.90625 -43.328125 C -7.8125 -43.234375 -7.71875 -43.421875 -7.53125 -44 C -7.046875 -45.640625 -6.46875 -49.890625 -5.3125 -49.59375 C -4.921875 -49.40625 -5.5 -49.015625 -5.40625 -48.734375 Z M -19.59375 -14.578125 C -19.5 -14.46875 -19.5 -14.28125 -19.5 -14.09375 C -19.59375 -13.796875 -19.6875 -14.953125 -19.59375 -14.578125 Z M -22.390625 24.609375 C -22.671875 25 -22.484375 24.421875 -22.390625 24.21875 C -22.09375 23.734375 -22.1875 24.421875 -22.390625 24.609375 Z M -21.71875 7.53125 C -22 7.625 -22.09375 10.71875 -22.671875 11.578125 C -22.875 11.484375 -22.78125 13.40625 -22.671875 12.359375 L -22.578125 11.875 C -21.90625 13.515625 -23.359375 16.5 -23.359375 18.046875 C -24.125 21.609375 -25 25.765625 -25.765625 29.4375 C -25.578125 20.84375 -22.578125 4.921875 -20.453125 -5.5 C -16.984375 -21.03125 -11.390625 -42.078125 -4.828125 -57.515625 C -3.953125 -59.546875 -3.46875 -60.21875 -3.671875 -59.25 C -9.75 -43.03125 -16.5 -21.71875 -19.6875 -4.34375 C -19.875 -2.03125 -20.078125 -3.28125 -20.65625 0.765625 C -20.75 1.640625 -21.03125 1.734375 -21.03125 2.21875 C -20.9375 2.40625 -21.03125 2.890625 -21.234375 3.375 C -21.515625 4.828125 -21.03125 5.796875 -21.71875 7.53125 Z M -11.765625 -31.171875 C -11.875 -31.453125 -10.90625 -35.3125 -10.609375 -34.84375 C -10.328125 -34.453125 -11.1875 -33.203125 -11.09375 -32.8125 C -11.09375 -32.515625 -11.578125 -31.65625 -11.765625 -31.171875 Z M -11.96875 -29.71875 C -12.15625 -29.234375 -12.453125 -28.859375 -12.453125 -28.65625 C -12.546875 -28.375 -12.546875 -28.375 -12.546875 -28.65625 C -12.640625 -29.046875 -12.0625 -29.625 -12.15625 -30.015625 C -12.15625 -30.203125 -12.0625 -30.390625 -11.96875 -30.5 C -11.578125 -30.6875 -11.578125 -30.390625 -11.96875 -29.71875 Z M -12.9375 -26.921875 C -13.03125 -26.734375 -13.03125 -26.734375 -13.03125 -26.921875 C -13.125 -27.21875 -12.9375 -27.890625 -12.828125 -28.171875 C -12.734375 -27.796875 -12.734375 -27.21875 -12.9375 -26.921875 Z M -15.046875 -20.078125 C -15.046875 -20.453125 -14.671875 -20.453125 -14.671875 -20.078125 C -14.671875 -19.96875 -14.46875 -19.78125 -14.375 -19.78125 C -14.1875 -19.78125 -14.1875 -19.78125 -14.375 -19.6875 C -14.671875 -19.5 -14.578125 -18.4375 -14.953125 -18.328125 C -15.34375 -18.140625 -14.953125 -19.875 -15.046875 -20.078125 Z M -14.671875 -20.9375 C -14.671875 -21.234375 -14.09375 -21.140625 -14.09375 -20.9375 C -14.09375 -20.75 -14.671875 -20.75 -14.671875 -20.9375 Z M -14 -23.0625 C -13.796875 -22.875 -13.609375 -22.671875 -13.609375 -22.578125 C -13.796875 -21.90625 -14.671875 -23.9375 -14 -23.0625 Z M -13.796875 -24.421875 C -13.703125 -24.796875 -13.40625 -26.734375 -13.125 -25.859375 C -12.828125 -25.578125 -14.09375 -22.578125 -13.796875 -24.421875 Z M -15.25 -17.171875 C -15.4375 -16.6875 -15.640625 -18.4375 -15.25 -17.65625 C -15.046875 -17.46875 -15.046875 -17.28125 -15.25 -17.171875 Z M -16.40625 -6.46875 C -17.171875 -4.625 -16.3125 -7.90625 -16.109375 -7.4375 C -16.109375 -7.328125 -16.21875 -6.84375 -16.40625 -6.46875 Z M -16.109375 -3.1875 C -16.21875 -2.890625 -16.3125 -3.765625 -16.109375 -3.578125 C -16.015625 -3.46875 -16.015625 -3.375 -16.109375 -3.1875 Z M -18.8125 -1.453125 C -18.8125 -1.34375 -19.109375 -1.0625 -19.203125 -1.34375 C -19.203125 -1.640625 -18.8125 -1.640625 -18.8125 -1.453125 Z M -21.140625 8.6875 C -21.609375 8.875 -21.03125 7.90625 -20.9375 8.390625 C -20.9375 8.484375 -21.03125 8.59375 -21.140625 8.6875 Z M -20.546875 17.65625 C -20.65625 18.046875 -20.453125 18.328125 -20.75 18.4375 C -21.328125 18.4375 -20.65625 17.46875 -20.453125 17.171875 Z M -20.265625 16.59375 C -20.359375 16.890625 -20.453125 16.984375 -20.453125 16.6875 C -20.546875 16.5 -20.171875 16.109375 -20.265625 16.59375 Z M -19.78125 14.765625 C -20.359375 15.828125 -19.6875 13.609375 -19.5 14.09375 C -19.5 14.1875 -19.59375 14.578125 -19.78125 14.765625 Z M -18.8125 11.96875 C -19.296875 12.15625 -18.71875 10.71875 -18.71875 11.578125 C -18.625 11.765625 -18.71875 11.96875 -18.8125 11.96875 Z M -18.53125 18.625 C -18.71875 19.015625 -18.71875 18.046875 -18.625 18.234375 C -18.53125 18.328125 -18.53125 18.4375 -18.53125 18.625 Z M -18.4375 17.75 C -18.53125 18.234375 -18.625 16.890625 -18.4375 17.171875 C -18.4375 17.375 -18.328125 17.5625 -18.4375 17.75 Z M -19.875 4.734375 C -20.171875 6.5625 -20.359375 4.625 -19.96875 3.578125 C -19.6875 3.1875 -19.6875 2.03125 -19.390625 1.734375 C -19.296875 1.640625 -19.203125 1.453125 -19.203125 1.15625 C -19.296875 0.578125 -18.90625 0.875 -18.90625 0.390625 C -18.90625 0.1875 -19.015625 0.09375 -19.203125 0.1875 C -19.5 0.390625 -19.59375 0 -19.296875 -0.09375 C -19.015625 -0.09375 -18.53125 -0.96875 -18.53125 -1.734375 C -18.53125 -2.21875 -18.53125 -2.3125 -18.625 -2.125 C -19.015625 -1.453125 -18.71875 -3.46875 -18.4375 -2.890625 C -17.75 -2.40625 -18.140625 -3.1875 -18.046875 -3.46875 C -17.46875 -3.671875 -17.65625 -2.40625 -18.046875 -1.453125 C -18.234375 -0.765625 -19.6875 3.09375 -19.875 4.734375 Z M -17.46875 4.734375 C -17.65625 4.828125 -17.65625 4.734375 -17.75 4.53125 C -17.75 3.953125 -17.171875 4.53125 -17.46875 4.734375 Z M -17.375 -7.625 C -17.46875 -7.90625 -16.59375 -8.875 -16.984375 -8.015625 C -17.375 -7.328125 -17.375 -7.234375 -17.375 -7.625 Z M -16.984375 -0.390625 C -17.171875 -0.578125 -16.796875 -2.125 -16.5 -1.734375 C -16.5 -1.34375 -16.890625 -1.15625 -16.890625 -0.671875 Z M -16.40625 4.921875 C -16.890625 5.015625 -16.3125 3.859375 -16.21875 4.53125 C -16.21875 4.734375 -16.3125 4.828125 -16.40625 4.921875 Z M -16.015625 8.78125 C -16.21875 8.78125 -16.21875 8.390625 -16.015625 8.390625 C -15.734375 8.390625 -15.734375 8.78125 -16.015625 8.78125 Z M -15.921875 3.28125 C -16.015625 3.46875 -16.109375 4.4375 -16.21875 3.671875 C -16.3125 2.890625 -15.828125 2.40625 -15.921875 1.546875 C -15.828125 0.875 -15.734375 0.578125 -15.53125 0.671875 C -15.4375 0.765625 -15.734375 2.796875 -15.921875 3.28125 Z M -15.4375 -0.96875 C -15.53125 -0.578125 -15.640625 -1.546875 -15.4375 -1.34375 C -15.34375 -1.25 -15.34375 -1.0625 -15.4375 -0.96875 Z M -14.765625 -10.421875 C -15.15625 -9.84375 -15.734375 -7.234375 -16.109375 -7.90625 C -16.015625 -8.59375 -14.953125 -10.71875 -14.859375 -11.765625 C -14.765625 -12.25 -14.671875 -12.453125 -14.46875 -12.359375 C -14.09375 -12.25 -14.1875 -11.875 -14.765625 -10.421875 Z M -14.28125 -12.453125 C -14.578125 -12.453125 -14.765625 -13.125 -14.46875 -13.21875 C -14.375 -13.21875 -14.28125 -13.40625 -14.28125 -13.515625 C -14.1875 -14 -13.890625 -13.703125 -14.09375 -14.46875 C -14.1875 -14.953125 -14.1875 -15.15625 -13.890625 -15.25 C -13.40625 -15.53125 -14 -16.3125 -13.515625 -16.890625 C -13.03125 -17.5625 -13.3125 -19.296875 -12.828125 -19.6875 C -12.25 -20.078125 -12.828125 -20.171875 -12.453125 -20.453125 C -11.96875 -20.65625 -12.359375 -22.78125 -11.875 -23.0625 C -11.484375 -23.359375 -11.484375 -24.796875 -11.296875 -25 C -11 -25.09375 -11.1875 -26.34375 -11 -26.53125 C -10.71875 -26.640625 -10.90625 -27.5 -10.609375 -27.5 C -10.328125 -27.984375 -10.421875 -28.859375 -9.9375 -30.203125 C -9.359375 -32.609375 -9.265625 -32.609375 -8.6875 -34.640625 C -8.484375 -35.421875 -8.296875 -36 -8.203125 -36 C -8.109375 -36 -8.109375 -36.09375 -8.296875 -36.1875 C -8.78125 -36.484375 -8.015625 -36.765625 -8.109375 -37.15625 C -8.296875 -37.4375 -7.234375 -38.3125 -7.328125 -38.5 C -7.328125 -38.703125 -6.5625 -39.28125 -6.84375 -39.65625 C -7.234375 -40.625 -5.015625 -45.15625 -5.015625 -45.640625 C -4.625 -47.09375 -3.859375 -48.0625 -3.578125 -48.921875 C -3.671875 -49.5 -3.28125 -50.46875 -3.09375 -50.375 C -2.984375 -50.28125 -2.890625 -50.46875 -2.984375 -50.5625 C -2.796875 -51.921875 -1.25 -55.875 -0.484375 -57.421875 C 0 -58.484375 1.0625 -60.796875 1.25 -61.953125 C 1.25 -62.34375 2.21875 -64.5625 2.21875 -64.171875 C 1.828125 -60.125 -1.15625 -55.203125 -2.21875 -51.046875 C -3.46875 -47.09375 -5.890625 -42.84375 -6.75 -38.3125 C -6.953125 -37.34375 -7.140625 -36.578125 -7.140625 -36.375 C -7.328125 -36.1875 -8.203125 -34.640625 -8.109375 -33.78125 C -8.109375 -33.578125 -8.203125 -33.390625 -8.296875 -33.296875 C -8.59375 -32.71875 -8.390625 -31.9375 -8.96875 -31.078125 C -9.65625 -29.234375 -10.125 -26.734375 -10.609375 -24.890625 C -11.671875 -21.03125 -12.25 -15.828125 -14.28125 -12.453125 Z M -0.875 -49.890625 C -1.0625 -49.796875 -0.96875 -49.5 -1.25 -49.21875 C -1.640625 -48.828125 -1.546875 -49.21875 -1.0625 -49.890625 C -0.578125 -50.28125 -0.765625 -50.859375 -0.484375 -51.046875 C -0.1875 -51.046875 -0.671875 -49.890625 -0.875 -49.890625 Z M -0.96875 -43.421875 C -1.25 -42.453125 -1.640625 -42.078125 -1.34375 -42.9375 C -1.25 -43.421875 -0.484375 -44.78125 -0.96875 -43.421875 Z M -1.546875 -48.25 C -1.640625 -47.859375 -1.734375 -48.734375 -1.546875 -48.546875 C -1.546875 -48.546875 -1.453125 -48.34375 -1.546875 -48.25 Z M -0.296875 -50.078125 C 0 -50.078125 0 -49.984375 -0.1875 -49.796875 C -0.484375 -49.703125 -0.484375 -50.1875 -0.296875 -50.078125 Z M -0.296875 -51.53125 C -0.296875 -51.71875 -0.296875 -51.828125 -0.1875 -51.71875 C -0.09375 -51.71875 -0.1875 -50.953125 -0.296875 -51.53125 Z M -1.9375 -41.40625 C -1.828125 -41.40625 -1.828125 -41.203125 -1.9375 -41.015625 C -2.03125 -40.71875 -2.125 -41.59375 -1.9375 -41.40625 Z M -2.515625 -45.453125 C -2.890625 -44.578125 -2.796875 -44.203125 -3.1875 -43.8125 C -3.765625 -43.90625 -2.703125 -45.546875 -2.609375 -46.21875 C -2.125 -47.671875 -1.640625 -47.1875 -2.515625 -45.453125 Z M -6.46875 -34.9375 C -6.46875 -34.84375 -6.84375 -33.96875 -6.84375 -34.546875 C -6.84375 -34.734375 -6.5625 -35.21875 -6.46875 -34.9375 Z M -6.84375 -33.578125 C -6.953125 -33 -7.4375 -32.03125 -7.234375 -33.203125 C -7.234375 -33.671875 -6.65625 -34.640625 -6.84375 -33.578125 Z M -7.53125 -31.5625 C -7.625 -31.078125 -7.625 -32.421875 -7.53125 -32.140625 C -7.4375 -31.9375 -7.4375 -31.75 -7.53125 -31.5625 Z M -9.75 -7.234375 C -10.234375 -7.234375 -9.65625 -8.109375 -9.546875 -7.53125 C -9.546875 -7.328125 -9.65625 -7.234375 -9.75 -7.234375 Z M -9.75 -24.03125 C -9.65625 -25.859375 -8.390625 -28.5625 -7.90625 -30.390625 C -7.90625 -30.6875 -7.4375 -30.59375 -7.625 -30.109375 C -7.8125 -29.8125 -7.625 -28.65625 -8.015625 -28.46875 C -8.484375 -28.078125 -8.96875 -23.828125 -9.75 -24.03125 Z M -4.625 -18.8125 C -5.40625 -17.171875 -6.953125 -13.21875 -7.71875 -11.484375 C -7.8125 -10.8125 -8.6875 -9.75 -8.78125 -9.171875 C -8.78125 -8.78125 -9.265625 -8.96875 -9.359375 -8.59375 C -9.359375 -8.296875 -9.453125 -8.296875 -9.453125 -8.6875 C -9.453125 -9.546875 -7.8125 -12.640625 -8.015625 -13.125 C -8.015625 -13.609375 -6.953125 -14.578125 -7.234375 -14.953125 C -7.328125 -14.953125 -7.234375 -15.15625 -7.140625 -15.15625 C -6.65625 -16.40625 -6.65625 -17.953125 -6.078125 -19.296875 C -5.59375 -19.96875 -5.890625 -21.328125 -5.015625 -20.265625 C -4.53125 -19.6875 -4.34375 -19.015625 -4.625 -18.8125 Z M -3.765625 -42.171875 C -3.671875 -41.875 -5.5 -36.953125 -5.6875 -37.828125 C -5.6875 -37.921875 -3.578125 -44.578125 -3.765625 -42.171875 Z M -3.46875 -28.375 C -3.375 -30.78125 -2.03125 -32.609375 -1.25 -34.734375 C -1.0625 -35.609375 -0.765625 -35.421875 -0.671875 -35.890625 C -0.671875 -36 -0.484375 -36.28125 -0.1875 -36.578125 C 0.390625 -36.953125 0.09375 -37.4375 0.484375 -37.921875 C 2.03125 -41.203125 5.015625 -47.28125 6.953125 -50.46875 C 11.875 -59.15625 12.640625 -60.125 19.5 -69.859375 C 25.671875 -77.96875 29.625 -83.5625 37.0625 -90.03125 C 41.015625 -93.40625 46.609375 -96.015625 39.765625 -91.09375 C 37.25 -89.75 28.65625 -80.09375 25.09375 -75.265625 C 22.671875 -72.1875 16.984375 -63.6875 14.765625 -61.859375 C 11.1875 -55.484375 7.625 -49.59375 4.4375 -43.71875 C 2.796875 -40.140625 0.484375 -36.28125 -1.640625 -31.359375 C -2.890625 -28.859375 -3.46875 -27.796875 -3.46875 -28.375 Z M -2.796875 -24.3125 C -2.609375 -24.796875 -3.46875 -26.734375 -2.703125 -26.640625 C -2.515625 -26.640625 -2.40625 -26.828125 -2.40625 -27.015625 C -2.515625 -27.5 -1.9375 -28.078125 -1.9375 -28.46875 C -1.828125 -29.046875 -1.34375 -29.046875 -1.15625 -29.71875 C -0.96875 -30.296875 -0.578125 -30.5 -0.578125 -30.875 C -0.671875 -30.875 -0.484375 -31.359375 -0.1875 -31.9375 C 0.296875 -32.609375 0.09375 -33 0.484375 -33.203125 C 0.875 -33.671875 0.875 -34.640625 1.453125 -35.515625 C 2.984375 -38.890625 5.015625 -42.078125 6.46875 -45.453125 C 7.4375 -47.28125 9.078125 -50.5625 10.328125 -52.203125 C 10.90625 -52.78125 10.8125 -54.234375 11.484375 -54.421875 C 14.46875 -59.25 21.71875 -70.734375 25.578125 -74.109375 C 25.953125 -74.109375 25.578125 -74.59375 25.859375 -74.984375 C 26.15625 -75.65625 28.65625 -78.75 28.859375 -78.75 C 29.234375 -78.75 30.6875 -80.390625 30.59375 -80.578125 C 30.78125 -81.34375 34.15625 -85.109375 35.03125 -84.53125 C 35.3125 -84.140625 34.9375 -85.5 35.03125 -85.3125 C 35.21875 -85.109375 36.375 -86.46875 36.28125 -86.65625 C 36.1875 -86.953125 37.53125 -88.109375 38.125 -88.109375 C 38.40625 -88.109375 38.703125 -88.296875 38.890625 -88.484375 C 38.5 -88.875 46.703125 -93.703125 46.421875 -93.125 C 46.125 -92.453125 43.71875 -91.578125 43.03125 -90.8125 C 42.84375 -90.328125 42.359375 -90.515625 42.265625 -90.125 C 42.171875 -89.9375 42.078125 -89.84375 41.875 -89.84375 C 41.109375 -89.359375 39.765625 -88.015625 38.984375 -87.53125 C 38.59375 -87.625 38.796875 -87.046875 38.5 -87.046875 C 38.3125 -87.046875 36.765625 -85.203125 36.484375 -85.40625 C 35.515625 -84.4375 34.84375 -83.5625 33.578125 -82.3125 C 32.71875 -81.453125 32.71875 -80.96875 32.421875 -80.578125 C 31.5625 -80.28125 30.875 -78.9375 30.296875 -78.453125 C 29.8125 -78.265625 29.71875 -77.296875 29.234375 -77.203125 C 28.75 -77.109375 29.046875 -76.625 28.46875 -76.234375 C 27.890625 -75.953125 27.890625 -75.171875 27.5 -74.984375 C 27.40625 -74.984375 27.40625 -74.78125 27.40625 -74.59375 C 27.3125 -73.828125 26.734375 -73.828125 26.15625 -72.859375 C 22.78125 -68.21875 17.5625 -61.859375 14.46875 -56.265625 C 12.640625 -54.046875 10.328125 -48.828125 8.59375 -46.125 C 7.140625 -43.515625 5.890625 -40.8125 4.34375 -37.921875 C 0.1875 -29.140625 0.1875 -29.046875 -0.484375 -27.984375 C -1.0625 -26.921875 -2.125 -24.515625 -2.125 -24.125 C -2.125 -23.359375 -2.984375 -23.25 -2.796875 -24.3125 Z M 41.296875 -88.015625 C 41.296875 -87.90625 40.921875 -87.625 40.921875 -87.90625 C 40.921875 -88.109375 41.296875 -88.203125 41.296875 -88.015625 Z M 40.34375 -87.328125 C 40.140625 -87.328125 40.140625 -87.53125 40.53125 -87.625 C 40.921875 -87.8125 40.53125 -87.328125 40.34375 -87.328125 Z M 39.765625 -87.046875 C 39.859375 -87.140625 39.953125 -87.140625 40.046875 -87.140625 C 40.4375 -87.046875 39.5625 -86.5625 39.765625 -87.046875 Z M 20.65625 -63.296875 C 20.359375 -62.625 19.59375 -62.34375 20.171875 -63.40625 C 20.65625 -64.171875 21.03125 -64.078125 20.65625 -63.296875 Z M 17.171875 -58.1875 C 17.28125 -57.703125 16.890625 -57.703125 16.796875 -58.1875 C 16.796875 -58.671875 17.171875 -58.671875 17.171875 -58.1875 Z M 15.15625 -55.484375 C 16.015625 -55.203125 14.375 -53.84375 14.953125 -54.90625 C 15.15625 -55.09375 15.25 -55.390625 15.15625 -55.484375 Z M 13.796875 -53.75 C 13.796875 -53.9375 13.890625 -54.046875 14.09375 -54.140625 C 14.671875 -54.328125 13.890625 -52.875 13.796875 -53.75 Z M 10.71875 -47.09375 C 10.609375 -47.09375 10.328125 -47.671875 10.515625 -47.671875 C 10.8125 -47.671875 10.8125 -47.1875 10.71875 -47.09375 Z M 9.265625 -44.78125 C 9.265625 -44.578125 9.265625 -44.578125 9.265625 -44.96875 C 9.265625 -45.453125 10.125 -47 10.328125 -46.90625 C 10.609375 -46.421875 9.453125 -45.265625 9.265625 -44.78125 Z M 8.203125 -42.65625 C 8.109375 -41.984375 7.8125 -41.59375 7.8125 -42.171875 C 7.71875 -42.453125 8.484375 -43.8125 8.203125 -42.65625 Z M 6.75 -40.140625 C 6.75 -40.4375 7.140625 -40.4375 7.140625 -40.140625 C 7.140625 -39.859375 6.75 -39.953125 6.75 -40.140625 Z M 6.171875 -39.375 C 6.171875 -39.859375 6.65625 -39.765625 6.75 -39.375 C 6.84375 -38.890625 6.171875 -38.984375 6.171875 -39.375 Z M 7.234375 -41.203125 C 7.53125 -41.296875 7.53125 -40.71875 7.328125 -40.71875 C 7.046875 -40.71875 7.046875 -41.015625 7.234375 -41.203125 Z M 4.34375 -35.21875 C 4.34375 -35.515625 4.734375 -36.1875 4.921875 -36.1875 C 5.21875 -36 4.4375 -34.640625 4.34375 -35.21875 Z M 3.28125 -33 C 3.375 -33.09375 3.578125 -33.203125 3.578125 -33.09375 C 3.765625 -33 2.796875 -32.609375 3.28125 -33 Z M 2.125 -30.296875 C 2.03125 -29.921875 2.03125 -29.921875 1.9375 -30.203125 C 1.9375 -30.5 2.890625 -32.609375 3.09375 -32.609375 C 3.375 -32.421875 2.125 -30.6875 2.125 -30.296875 Z M 1.0625 -28.953125 C 1.0625 -29.234375 1.34375 -29.53125 1.546875 -29.234375 C 1.640625 -29.046875 1.0625 -28.375 1.0625 -28.953125 Z M 0.96875 -27.703125 C 0.96875 -27.5 0.578125 -27.21875 0.578125 -27.59375 C 0.484375 -27.984375 0.875 -27.984375 0.96875 -27.703125 Z M -0.96875 -23.546875 C -1.34375 -23.546875 -1.15625 -24.3125 -0.96875 -24.3125 C -0.765625 -24.3125 -0.671875 -23.546875 -0.96875 -23.546875 Z M -0.765625 -20.453125 C -0.390625 -22.09375 0.484375 -23.25 1.34375 -25.671875 C 5.984375 -36.375 9.546875 -43.140625 15.34375 -52.296875 C 17.46875 -56.546875 21.71875 -60.5 23.546875 -64.46875 C 24.421875 -66.203125 27.796875 -70.640625 27.890625 -70.25 C 28.65625 -70.640625 31.171875 -74.59375 31.84375 -75.171875 C 37.15625 -81.921875 46.703125 -92.546875 54.515625 -92.640625 C 57.03125 -92.34375 58 -88.015625 58.28125 -85.015625 C 58.765625 -80.1875 57.21875 -75.65625 55.6875 -71.3125 C 50.5625 -56.9375 38.703125 -40.234375 26.53125 -30.5 C 20.453125 -25.765625 9.171875 -18.625 1.25 -19.5 C 0.09375 -19.6875 -0.765625 -20.078125 -0.765625 -20.453125 Z M 54.234375 -64.75 C 54.234375 -64.5625 54.140625 -64.65625 54.140625 -64.84375 C 54.140625 -65.421875 54.421875 -65.046875 54.234375 -64.75 Z M 2.125 -16.890625 C 2.03125 -17.078125 1.9375 -17.171875 1.734375 -17.28125 C 1.34375 -17.375 2.796875 -17.46875 2.609375 -17.078125 C 2.40625 -16.3125 3.671875 -17.375 3.578125 -16.796875 C 3.46875 -16.3125 2.125 -16.40625 2.125 -16.890625 Z M 3.578125 -17.375 C 3.46875 -17.5625 4.046875 -17.5625 4.15625 -17.46875 C 4.15625 -17.375 3.578125 -17.078125 3.578125 -17.375 Z M 3.953125 -16.59375 C 3.765625 -16.59375 3.671875 -16.984375 3.953125 -16.984375 C 4.25 -16.984375 4.25 -16.59375 3.953125 -16.59375 Z M 11 -15.734375 C 10.8125 -15.53125 11.1875 -15.15625 10.71875 -15.046875 C 9.65625 -14.859375 6.84375 -14.953125 5.984375 -15.34375 C 6.171875 -15.734375 11.484375 -14.953125 10.90625 -15.921875 C 10.90625 -16.59375 11.578125 -16.015625 11 -15.734375 Z M 8.296875 -15.921875 C 8.484375 -16.015625 8.6875 -16.015625 8.875 -15.921875 C 9.65625 -15.640625 7.90625 -15.640625 8.296875 -15.921875 Z M 13.515625 -15.734375 C 12.828125 -15.734375 13.609375 -15.921875 13.796875 -15.828125 C 13.890625 -15.734375 13.796875 -15.734375 13.515625 -15.734375 Z M 61.28125 -71.609375 C 60.796875 -69.765625 61.375 -67.75 60.890625 -67.0625 C 61.1875 -67.15625 57.703125 -59.828125 57.21875 -57.796875 C 56.546875 -56.359375 55.484375 -54.8125 54.90625 -53.265625 C 54.046875 -51.4375 52.5 -48.34375 51.234375 -46.90625 C 49.59375 -43.625 46.125 -40.046875 43.515625 -36.671875 C 37.34375 -29.4375 26.921875 -19.5 17.46875 -16.890625 C 16.796875 -16.5 14.671875 -16.109375 14.765625 -16.3125 C 14.953125 -16.6875 14 -16.984375 14.46875 -17.171875 C 14.578125 -17.28125 14.375 -17.375 14 -17.375 C 13.03125 -17.375 13.515625 -16.984375 12.734375 -16.984375 C 11.671875 -16.890625 11.484375 -16.109375 10.234375 -16.796875 C 9.75 -17.078125 9.65625 -17.078125 8.78125 -16.6875 C 7.4375 -16.109375 7.71875 -16.984375 6.65625 -16.59375 C 6.375 -16.40625 6.171875 -16.3125 6.171875 -16.21875 C 6.375 -16.015625 6.078125 -16.015625 5.015625 -16.21875 C 4.25 -16.3125 4.25 -16.40625 4.625 -16.890625 C 4.921875 -17.171875 4.921875 -17.28125 4.734375 -17.375 C 4.34375 -17.5625 5.109375 -17.859375 5.6875 -17.65625 C 6.65625 -17.5625 6.953125 -18.234375 9.078125 -18.53125 C 9.65625 -18.53125 11.671875 -19.6875 11.390625 -18.90625 C 11.296875 -18.71875 11.296875 -18.71875 11.578125 -18.90625 C 11.96875 -19.109375 11.484375 -19.390625 11.875 -19.5 C 12.453125 -19.59375 12.734375 -19.96875 13.703125 -20.265625 C 16.109375 -21.03125 21.140625 -24.125 23.453125 -25.46875 C 27.984375 -28.75 36.1875 -36.859375 38.40625 -40.4375 C 45.15625 -48.25 49.40625 -55.203125 53.65625 -63.6875 C 53.9375 -64.265625 54.046875 -64.265625 53.9375 -63.78125 C 53.65625 -62.828125 54.8125 -63.5 54.71875 -63.984375 C 54.8125 -65.140625 56.453125 -67.9375 57.03125 -69 C 57.328125 -70.0625 58.09375 -69.765625 57.421875 -68.90625 C 57.328125 -68.796875 57.125 -68.609375 57.125 -68.421875 C 56.734375 -66.578125 55.296875 -63.6875 54.515625 -61.953125 C 54.625 -61.859375 54.515625 -61.765625 54.328125 -61.65625 C 53.75 -61.5625 54.90625 -60.984375 54.421875 -60.890625 C 54.046875 -60.703125 54.234375 -60.3125 53.75 -60.125 C 53.359375 -59.921875 53.5625 -59.25 53.171875 -59.15625 C 52.78125 -59.15625 53.078125 -58.578125 52.78125 -58.578125 C 52.6875 -58.578125 52.59375 -58.484375 52.59375 -58.28125 C 52.6875 -57.90625 51.71875 -58.09375 52.203125 -57.90625 C 52.40625 -57.703125 52.40625 -57.609375 52.296875 -57.609375 C 51.921875 -57.03125 52.109375 -55.96875 51.140625 -55.96875 C 50.953125 -55.96875 50.765625 -55.78125 50.859375 -55.578125 C 51.234375 -53.75 52.875 -57.90625 52.6875 -57.796875 C 52.5 -58 54.234375 -59.640625 54.234375 -59.828125 C 54.234375 -59.921875 54.328125 -60.21875 54.515625 -60.3125 C 55.09375 -60.984375 54.625 -61.078125 55.296875 -61.859375 C 55.96875 -62.625 57.21875 -65.046875 57.328125 -65.90625 C 57.421875 -66.390625 58.09375 -66.484375 58.09375 -65.90625 C 58 -64.5625 56.453125 -62.828125 56.734375 -61.375 C 57.125 -60.609375 57.90625 -63.5 57.90625 -63.6875 C 58 -64.65625 58.375 -64.46875 58.765625 -65.328125 C 59.546875 -66.578125 57.796875 -65.421875 58.578125 -67.359375 C 58.578125 -67.453125 58.671875 -67.75 58.671875 -68.03125 C 58.578125 -68.421875 59.25 -69.671875 58.96875 -69.859375 C 58.671875 -69.859375 58.859375 -71.21875 59.25 -71.609375 C 59.4375 -71.796875 59.546875 -71.796875 59.4375 -71.3125 C 59.25 -70.25 60.21875 -71.125 60.015625 -71.703125 C 60.015625 -71.890625 60.125 -72.375 60.40625 -72.671875 C 61.1875 -73.71875 60.984375 -74.109375 61.46875 -75.46875 C 62.625 -78.359375 62.140625 -74.109375 61.28125 -71.609375 Z M 56.0625 -59.640625 C 55.78125 -59.4375 55.390625 -58.671875 55.578125 -58.484375 C 55.6875 -58.09375 56.640625 -59.734375 56.0625 -59.640625 Z M 19.296875 -19.203125 C 19.015625 -19.296875 17.953125 -18.71875 17.953125 -18.4375 C 17.859375 -18.140625 19.203125 -18.140625 19.203125 -18.328125 C 19.109375 -18.4375 19.203125 -18.53125 19.296875 -18.53125 C 19.5 -18.53125 19.5 -19.015625 19.296875 -19.203125 Z M 21.234375 -20.265625 C 20.75 -19.875 20.078125 -20.171875 19.96875 -19.390625 C 19.96875 -19.203125 20.078125 -19.109375 20.359375 -19.203125 C 20.9375 -19.390625 22.296875 -20.75 21.234375 -20.265625 Z M 7.625 -17.75 C 7.328125 -17.75 7.140625 -17.65625 7.140625 -17.5625 C 7.328125 -17.078125 9.078125 -17.75 8.78125 -17.953125 C 8.390625 -18.140625 8.015625 -17.65625 7.625 -17.75 Z M 50.5625 -54.234375 C 50.375 -54.234375 50.28125 -54.421875 50.28125 -54.515625 C 50.1875 -55 49.890625 -54.625 49.984375 -54.328125 C 50.28125 -53.9375 49.3125 -53.9375 49.40625 -53.65625 C 49.5 -53.46875 49.40625 -53.265625 49.21875 -53.171875 C 48.828125 -52.875 48.15625 -51.4375 48.25 -51.140625 C 48.4375 -50.65625 48.734375 -50.859375 49.40625 -51.828125 C 50.46875 -53.359375 50.859375 -54.140625 50.5625 -54.234375 Z M 50.5625 -54.234375 "/></g></g></g><g fill="#148084" fill-opacity="1"><g transform="translate(804.429485, 899.641676)"><g><path d="M 44.296875 -81.453125 C 43.328125 -82.3125 44.671875 -82.21875 44.296875 -83.09375 C 44 -83.671875 44 -83.953125 43.140625 -84.140625 C 42.453125 -84.140625 41.78125 -84.625 42.265625 -84.625 C 33.671875 -89.171875 11.484375 -69.765625 4.828125 -61.5625 C 2.609375 -58.765625 4.046875 -61.765625 4.625 -63.984375 C 5.796875 -67.265625 7.328125 -71.703125 8.390625 -74.109375 C 10.234375 -78.171875 12.828125 -83.671875 15.046875 -88.015625 C 16.21875 -90.421875 15.4375 -91.28125 12.828125 -92.546875 C 11.578125 -93.3125 11.296875 -92.34375 10.328125 -92.734375 C 8.96875 -93.609375 6.84375 -90.703125 5.796875 -90.328125 C 5.40625 -89.9375 4.828125 -88.484375 4.625 -87.8125 C 2.515625 -83.859375 0.96875 -79.8125 -0.765625 -75.65625 C -6.078125 -62.046875 -10.125 -48.0625 -14.09375 -33.671875 C -15.25 -30.109375 -16.015625 -26.0625 -16.984375 -22.671875 C -18.625 -15.921875 -18.71875 -16.796875 -18.234375 -13.609375 C -18.046875 -10.71875 -16.890625 -12.453125 -16.21875 -11 C -15.734375 -9.453125 -15.046875 -10.8125 -14.46875 -9.75 C -14.1875 -8.78125 -12.15625 -8.96875 -11.296875 -8.6875 C -11 -8.203125 -9.84375 -8.875 -9.84375 -9.546875 C -9.84375 -9.84375 -9.75 -10.125 -9.65625 -10.421875 C -9.453125 -10.609375 -9.453125 -10.8125 -9.546875 -10.90625 C -9.84375 -11.1875 -9.75 -12.640625 -9.453125 -13.3125 C -9.265625 -13.890625 -9.078125 -18.046875 -8.78125 -18.625 C -7.90625 -21.8125 -6.953125 -25.671875 -5.5 -29.140625 C -5.5 -29.34375 -5.40625 -29.53125 -5.3125 -29.71875 C -5.21875 -29.8125 -4.828125 -30.59375 -4.4375 -31.5625 C -3.859375 -32.90625 -2.796875 -34.734375 -3.671875 -32.421875 C -3.375 -30.96875 -0.96875 -37.828125 0 -39.078125 C 0.96875 -40.8125 1.25 -41.6875 1.546875 -42.078125 C 1.546875 -41.875 3.859375 -45.546875 4.046875 -46.421875 C 4.25 -47.28125 4.046875 -47.1875 3.578125 -46.421875 C 2.515625 -44.578125 2.125 -44 2.03125 -44.09375 C 1.9375 -44.203125 2.890625 -46.421875 3.28125 -46.90625 C 3.671875 -47.578125 5.5 -50.28125 5.796875 -51.140625 C 5.890625 -51.625 6.375 -51.828125 6.46875 -52.203125 C 6.46875 -52.296875 6.75 -52.6875 7.046875 -52.984375 C 7.90625 -53.5625 8.78125 -55.96875 10.03125 -56.640625 C 11 -57.125 12.15625 -59.34375 13.03125 -60.015625 C 16.59375 -64.9375 23.15625 -70.734375 28.859375 -74.6875 C 30.109375 -74.6875 29.234375 -75.75 29.8125 -75.5625 C 30.109375 -75.46875 31.265625 -75.953125 31.265625 -76.234375 C 31.265625 -76.421875 33.09375 -77.484375 35.796875 -79.03125 C 38.3125 -80.390625 37.734375 -81.15625 40.8125 -82.03125 C 42.265625 -82.5 42.65625 -82.40625 43.03125 -81.734375 C 43.421875 -81.0625 45.359375 -80.09375 44.296875 -81.453125 Z M -9.078125 -48.0625 C -9.171875 -47.578125 -9.265625 -47.09375 -9.359375 -47 C -9.9375 -45.640625 -10.609375 -42.078125 -11.296875 -40.71875 C -11.671875 -39.65625 -11.1875 -42.265625 -10.8125 -43.03125 C -10.609375 -43.234375 -8.6875 -50.46875 -9.078125 -48.0625 Z M -8.296875 -51.046875 L -8.015625 -51.4375 C -8.203125 -50.953125 -8.484375 -49.5 -8.78125 -49.015625 C -8.96875 -49.015625 -8.59375 -50.5625 -8.296875 -51.046875 Z M -6.46875 -49.5 C -6.75 -48.734375 -8.484375 -41.78125 -8.875 -43.03125 C -8.109375 -45.15625 -7.140625 -48.734375 -6.375 -50.953125 C -5.890625 -51.921875 -5.984375 -50.953125 -6.46875 -49.5 Z M 25.375 -76.625 C 25.46875 -76.625 25.765625 -76.234375 25.46875 -76.234375 C 25.28125 -76.234375 25.1875 -76.625 25.375 -76.625 Z M 24.421875 -75.46875 C 24.515625 -75.46875 23.828125 -74.890625 23.9375 -75.171875 C 23.9375 -75.359375 24.3125 -75.65625 24.421875 -75.46875 Z M 19.6875 -72.078125 C 20.171875 -72.078125 19.5 -71.5 19.5 -71.890625 C 19.5 -71.984375 19.59375 -72.078125 19.6875 -72.078125 Z M 18.328125 -70.921875 C 19.015625 -71.5 19.296875 -71.40625 18.71875 -70.734375 C 18.4375 -70.34375 17.171875 -70.15625 18.328125 -70.921875 Z M 16.6875 -69.484375 C 17.46875 -70.25 17.75 -69.859375 17.078125 -69.390625 C 16.3125 -68.703125 16.015625 -68.90625 16.6875 -69.484375 Z M 15.734375 -68.796875 C 16.015625 -68.796875 15.921875 -68.609375 15.734375 -68.515625 C 15.4375 -68.328125 15.53125 -68.796875 15.734375 -68.796875 Z M 13.515625 -66.578125 C 13.703125 -66.78125 14 -66.96875 14.09375 -66.96875 C 14.671875 -66.875 12.640625 -65.625 13.515625 -66.578125 Z M 6.75 -59.15625 C 7.140625 -59.34375 8.96875 -62.140625 9.078125 -61.5625 C 9.265625 -61.1875 5.796875 -57.328125 6.75 -59.15625 Z M -2.890625 -40.140625 C -3.28125 -39.078125 -4.25 -39.765625 -3.578125 -39.953125 C -3.28125 -39.953125 -3.1875 -40.8125 -2.796875 -40.8125 C -2.515625 -40.921875 -2.609375 -40.71875 -2.890625 -40.140625 Z M -2.609375 -52.6875 C -2.796875 -52.296875 -2.703125 -53.171875 -2.609375 -52.984375 C -2.515625 -52.984375 -2.515625 -52.78125 -2.609375 -52.6875 Z M -2.515625 -53.84375 C -3.09375 -53.65625 -1.9375 -55.578125 -2.125 -54.421875 C -2.125 -54.140625 -2.3125 -53.84375 -2.515625 -53.84375 Z M -2.125 -53.078125 C -2.609375 -52.984375 -1.9375 -53.5625 -1.9375 -53.265625 C -1.9375 -53.171875 -2.03125 -53.078125 -2.125 -53.078125 Z M -1.734375 -54.625 C -1.453125 -54.8125 -1.453125 -55.09375 -1.828125 -55.09375 C -2.984375 -55.78125 0 -58 -1.34375 -54.625 C -1.546875 -53.65625 -2.3125 -53.9375 -1.734375 -54.625 Z M -1.34375 -45.15625 C -1.34375 -45.453125 -0.96875 -45.546875 -0.96875 -45.15625 C -0.96875 -44.78125 -1.34375 -44.78125 -1.34375 -45.15625 Z M -1.34375 -44.09375 C -1.34375 -44.203125 -1.25 -44.296875 -1.15625 -44.296875 C -0.671875 -44.390625 -1.34375 -43.8125 -1.34375 -44.09375 Z M -0.96875 -43.140625 C -1.0625 -42.84375 -1.453125 -42.84375 -1.453125 -43.03125 C -1.453125 -43.234375 -0.765625 -43.515625 -0.96875 -43.140625 Z M -0.390625 -59.15625 C -0.578125 -58.96875 -1.15625 -57.421875 -0.875 -58.859375 C -0.875 -60.015625 -0.1875 -60.609375 -0.390625 -59.15625 Z M 0.765625 -46.03125 C 0.390625 -45.265625 -0.671875 -45.84375 -0.1875 -46.421875 C 0 -46.515625 0 -46.703125 -0.09375 -46.703125 C -0.296875 -46.703125 0.671875 -47.375 0.578125 -46.796875 C 0.578125 -46.3125 1.15625 -46.515625 0.765625 -46.03125 Z M 0.875 -47.765625 C 0.671875 -47.765625 0.578125 -48.0625 0.765625 -48.15625 C 0.875 -48.15625 1.15625 -47.765625 0.875 -47.765625 Z M 1.453125 -49.3125 C 1.15625 -49.703125 1.640625 -49.59375 1.734375 -49.40625 C 1.9375 -49.125 1.734375 -49.015625 1.453125 -49.3125 Z M 2.40625 -50.375 C 2.21875 -50.078125 2.21875 -49.40625 1.828125 -49.890625 C 1.640625 -49.984375 2.796875 -51.140625 2.40625 -50.375 Z M 5.109375 -56.359375 C 3.859375 -54.625 2.609375 -53.265625 1.34375 -51.34375 C 0.765625 -50.765625 0.296875 -49.015625 0 -49.703125 C 0 -49.984375 0.875 -51.4375 1.15625 -51.625 C 1.453125 -52.015625 1.828125 -53.171875 2.609375 -53.359375 C 2.796875 -53.359375 2.703125 -54.234375 2.984375 -54.234375 C 3.09375 -54.234375 3.1875 -54.328125 3.09375 -54.421875 C 2.984375 -54.90625 3.859375 -55.484375 4.046875 -55.96875 C 5.3125 -57.90625 6.75 -58.859375 5.109375 -56.359375 Z M 11.578125 -61.078125 C 11.296875 -60.796875 10.421875 -59.546875 10.03125 -59.4375 C 10.03125 -59.546875 9.9375 -59.34375 9.9375 -59.15625 C 10.234375 -59.15625 7.140625 -55.484375 7.046875 -55.484375 C 6.953125 -55.6875 5.796875 -54.328125 5.796875 -54.625 C 5.890625 -54.90625 6.46875 -55.203125 6.375 -55.578125 C 6.65625 -56.84375 13.03125 -64.359375 13.3125 -63.40625 C 12.828125 -63.015625 12.0625 -61.46875 11.578125 -61.078125 Z M 13.125 -65.625 C 12.734375 -64.9375 10.71875 -63.59375 12.25 -65.421875 C 12.640625 -66.203125 13.796875 -66 13.125 -65.625 Z M 15.046875 -65.046875 C 14.671875 -64.9375 14.28125 -63.6875 13.796875 -64.171875 C 13.703125 -64.359375 14.1875 -65.046875 14.375 -65.046875 C 14.578125 -65.046875 14.671875 -65.140625 14.765625 -65.234375 C 14.953125 -65.90625 15.53125 -65.234375 15.046875 -65.046875 Z M 15.4375 -66.109375 C 15.53125 -66.578125 16.015625 -66.78125 16.3125 -66.484375 C 16.796875 -66.109375 15.046875 -65.328125 15.4375 -66.109375 Z M 16.21875 -66.78125 C 16.015625 -66.78125 16.015625 -66.96875 16.21875 -67.0625 C 16.5 -67.265625 16.5 -66.78125 16.21875 -66.78125 Z M 17.28125 -66.78125 C 16.6875 -66.578125 16.59375 -66.578125 16.984375 -67.0625 C 17.5625 -67.9375 17.859375 -66.96875 17.28125 -66.78125 Z M 22.875 -71.796875 C 22.09375 -71.3125 20.75 -69.96875 20.359375 -69.390625 C 20.171875 -68.796875 19.78125 -69.28125 19.59375 -68.796875 C 19.390625 -68.328125 16.796875 -67.546875 18.234375 -68.703125 C 18.625 -69.09375 19.109375 -69.390625 19.203125 -69.390625 C 19.78125 -69.484375 19.6875 -70.34375 20.265625 -70.34375 C 21.03125 -70.25 20.546875 -70.921875 21.03125 -71.03125 C 21.140625 -71.03125 21.328125 -71.125 21.328125 -71.3125 C 21.328125 -71.703125 22.09375 -71.5 22.09375 -71.796875 C 22 -72.078125 22.671875 -72.1875 22.578125 -72.46875 C 22.484375 -72.5625 22.578125 -72.671875 22.671875 -72.671875 C 22.875 -72.671875 23.0625 -71.890625 22.875 -71.796875 Z M 23.0625 -74.3125 C 22.78125 -74.015625 21.421875 -73.34375 22.390625 -74.203125 C 23.0625 -74.6875 23.546875 -74.78125 23.0625 -74.3125 Z M 27.015625 -74.890625 C 25.953125 -73.828125 25.578125 -74.015625 24.796875 -73.4375 C 24.515625 -72.671875 23.359375 -73.34375 24.125 -73.53125 C 24.21875 -73.53125 24.890625 -74.015625 25.578125 -74.6875 C 27.796875 -76.625 27.703125 -76.53125 27.984375 -76.234375 C 28.28125 -76.046875 28.171875 -75.84375 27.015625 -74.890625 Z M 29.4375 -79.21875 C 30.109375 -79.421875 29.140625 -78.546875 29.140625 -79.03125 C 29.140625 -79.125 29.234375 -79.21875 29.4375 -79.21875 Z M 29.4375 -76.90625 C 29.921875 -77.296875 30.203125 -77.296875 30.203125 -77.109375 C 30.109375 -76.8125 28.171875 -75.953125 29.4375 -76.90625 Z M 31.265625 -79.90625 C 31.078125 -80.09375 30.203125 -79.328125 30.109375 -79.609375 C 30.109375 -79.703125 30.203125 -79.8125 30.390625 -79.90625 C 32.03125 -80.859375 35.796875 -82.984375 38.125 -83.28125 C 39.375 -83.375 31.453125 -79.90625 31.265625 -79.90625 Z M 31.265625 -79.90625 "/></g></g></g><g fill="#148084" fill-opacity="1"><g transform="translate(852.002284, 899.641676)"><g><path d="M 36.765625 -80.671875 C 35.125 -84.625 28.75 -90.90625 24.125 -91.484375 C 20.453125 -91.96875 14.671875 -92.25 12.15625 -91 C 11.09375 -90.421875 9.75 -90.703125 8.78125 -89.453125 C 6.5625 -86.84375 4.34375 -83.671875 3.1875 -80.96875 C 3.28125 -80.765625 1.546875 -77.578125 1.640625 -77.484375 C -2.890625 -68.21875 -7.53125 -58.09375 -11.296875 -47 C -12.15625 -44.578125 -13.3125 -41.78125 -13.03125 -40.140625 C -12.828125 -39.953125 -12.828125 -39.765625 -12.9375 -39.65625 C -13.125 -38.890625 -13.3125 -36.28125 -13.40625 -35.21875 C -13.609375 -29.34375 -13.609375 -25.953125 -11 -21.8125 C -9.359375 -19.203125 -9.75 -18.90625 -7.4375 -16.3125 C -5.984375 -14.765625 -1.640625 -12.359375 0.484375 -11.875 C 2.984375 -11.484375 8.203125 -11.578125 9.65625 -12.546875 C 9.75 -12.640625 10.125 -12.734375 10.609375 -12.828125 C 11.390625 -12.640625 13.21875 -14.859375 13.796875 -15.046875 C 23.828125 -22.875 30.390625 -32.03125 35.421875 -43.328125 C 37.0625 -46.703125 35.796875 -47.578125 36.953125 -50.28125 C 37.734375 -51.625 36.484375 -51.921875 36.484375 -50.5625 C 36.953125 -50.46875 30.390625 -35.703125 29.34375 -36.1875 C 28.5625 -36.09375 28.75 -34.84375 27.703125 -34.734375 C 26.921875 -34.453125 26.640625 -34.640625 27.015625 -35.125 C 27.59375 -36.859375 26.53125 -36.09375 25.953125 -34.84375 C 24.703125 -32.8125 24.609375 -33.78125 25.1875 -35.21875 C 25.671875 -36.28125 25.46875 -37.34375 24.890625 -36.671875 C 24.421875 -36.09375 24.609375 -36.765625 24.796875 -37.0625 C 25.765625 -38.5 25.859375 -38.59375 26.15625 -38.3125 C 26.4375 -38.015625 26.734375 -38.015625 26.734375 -38.3125 C 26.4375 -38.796875 25.859375 -38.21875 26.53125 -39.375 C 27.40625 -41.296875 28.65625 -43.328125 28.75 -43.140625 C 29.140625 -42.65625 29.8125 -43.71875 30.109375 -45.15625 C 30.203125 -46.03125 30.96875 -46.796875 31.171875 -47.375 C 31.171875 -47.671875 32.140625 -48.921875 32.140625 -48.546875 C 32.234375 -47.859375 33.296875 -49.59375 33.578125 -50.953125 C 34.15625 -52.59375 35.03125 -54.046875 35.125 -55.78125 C 35.515625 -57.703125 36.1875 -61.28125 36.375 -63.59375 C 36.671875 -64.359375 36.671875 -65.234375 36.28125 -65.234375 C 36.09375 -65.234375 35.796875 -66.96875 36.28125 -66.578125 C 36.953125 -66.484375 36.484375 -67.265625 36.671875 -68.21875 C 36.671875 -70.15625 36 -77.109375 35.609375 -78.640625 C 35.421875 -79.8125 35.421875 -80 35.703125 -79.703125 C 37.15625 -78.359375 38.5 -67.75 38.3125 -65.71875 C 38.015625 -64.5625 38.3125 -60.796875 38.21875 -59.546875 C 38.21875 -59.0625 37.53125 -57.21875 38.3125 -57.328125 C 40.234375 -60.890625 38.21875 -76.8125 36.765625 -80.671875 Z M 32.421875 -83.28125 C 32.515625 -83.46875 32.90625 -83.28125 33 -83.09375 C 32.90625 -82.609375 32.234375 -82.984375 32.421875 -83.28125 Z M 31.9375 -82.796875 C 32.234375 -82.125 32.71875 -81.546875 32.71875 -80.859375 C 32.609375 -80.578125 32.609375 -80.578125 32.421875 -81.0625 C 32.234375 -81.640625 31.078125 -83.28125 30.96875 -83.765625 C 30.96875 -84.140625 31.65625 -83.46875 31.9375 -82.796875 Z M -8.484375 -51.234375 C -7.90625 -51.53125 -8.96875 -49.125 -8.96875 -49.984375 C -9.078125 -50.375 -8.6875 -51.234375 -8.484375 -51.234375 Z M -10.234375 -44.578125 C -11.390625 -42.078125 -10.328125 -45.9375 -10.234375 -46.609375 C -10.234375 -47.1875 -9.75 -46.90625 -9.84375 -47.484375 C -9.359375 -48.828125 -9.171875 -46.796875 -10.234375 -44.578125 Z M -9.359375 -48.828125 C -9.359375 -49.40625 -8.96875 -49.59375 -8.96875 -49.125 C -8.875 -48.828125 -9.546875 -47.953125 -9.359375 -48.828125 Z M -8.96875 -28.859375 C -9.171875 -28.46875 -9.265625 -29.4375 -9.078125 -29.234375 C -8.96875 -29.140625 -8.96875 -28.953125 -8.96875 -28.859375 Z M -8.96875 -32.421875 C -9.171875 -32.609375 -8.6875 -33.78125 -8.6875 -32.8125 C -8.59375 -32.234375 -8.6875 -32.03125 -8.96875 -32.421875 Z M -8.6875 -43.625 C -8.96875 -43.421875 -8.875 -43.90625 -8.6875 -44 C -8.390625 -44.203125 -8.390625 -43.71875 -8.6875 -43.625 Z M -8.390625 -37.828125 C -8.59375 -38.015625 -8.109375 -38.890625 -8.109375 -38.125 C -8.109375 -37.640625 -8.203125 -37.53125 -8.390625 -37.828125 Z M -7.8125 -39.171875 C -7.90625 -39.171875 -8.015625 -39.28125 -8.015625 -39.375 C -8.203125 -40.140625 -7.4375 -39.46875 -7.8125 -39.171875 Z M -7.4375 -29.8125 C -7.53125 -29.53125 -7.625 -30.78125 -7.4375 -30.390625 C -7.4375 -30.203125 -7.328125 -30.015625 -7.4375 -29.8125 Z M -7.53125 -40.625 C -7.71875 -40.71875 -7.8125 -39.65625 -7.8125 -40.140625 C -8.015625 -40.34375 -7.328125 -41.6875 -7.328125 -40.921875 C -7.328125 -40.71875 -7.328125 -40.625 -7.53125 -40.625 Z M -7.140625 -33.671875 C -7.234375 -33.203125 -7.328125 -34.25 -7.140625 -34.0625 C -7.140625 -33.96875 -7.046875 -33.78125 -7.140625 -33.671875 Z M -6.84375 -43.421875 C -6.953125 -43.03125 -7.046875 -42.9375 -7.140625 -43.421875 C -7.140625 -43.8125 -6.65625 -43.8125 -6.84375 -43.421875 Z M -7.53125 -53.265625 C -7.8125 -52.6875 -7.625 -52.40625 -8.015625 -51.828125 C -8.296875 -51.4375 -8.296875 -51.4375 -8.296875 -51.71875 C -8.390625 -52.203125 -6.953125 -55.6875 -6.84375 -55.578125 C -6.65625 -55.390625 -6.84375 -54.8125 -7.53125 -53.265625 Z M -6.375 -37.25 C -6.46875 -36.765625 -6.65625 -38.3125 -6.46875 -37.921875 C -6.375 -37.734375 -6.375 -37.53125 -6.375 -37.25 Z M -6.375 -44.78125 C -6.46875 -44.296875 -6.5625 -44.203125 -6.5625 -44.671875 C -6.65625 -44.96875 -6.265625 -45.359375 -6.375 -44.78125 Z M -0.09375 -70.640625 C -0.390625 -69.765625 -0.671875 -69.09375 -1.15625 -67.84375 C -3.578125 -63.296875 -5.3125 -57.90625 -6.265625 -56.453125 C -8.484375 -53.46875 -0.875 -69.96875 -0.09375 -70.640625 Z M -2.890625 -50.1875 C -1.9375 -52.296875 -2.984375 -48.546875 -3.1875 -49.125 C -3.1875 -49.21875 -3.09375 -49.703125 -2.890625 -50.1875 Z M -3.1875 -54.71875 C -2.890625 -55.484375 -2.703125 -54.421875 -3.09375 -54.421875 C -3.1875 -54.421875 -3.1875 -54.515625 -3.1875 -54.71875 Z M -2.3125 -56.0625 C -2.3125 -55.6875 -2.40625 -55.390625 -2.515625 -55.296875 C -2.984375 -54.8125 -2.40625 -57.328125 -2.3125 -56.0625 Z M -5.21875 -41.40625 C -5.5 -41.40625 -5.59375 -41.78125 -5.3125 -41.78125 C -5.015625 -41.875 -4.921875 -41.40625 -5.21875 -41.40625 Z M -4.921875 -42.453125 C -5.109375 -42.453125 -5.21875 -42.65625 -5.015625 -43.234375 C -4.734375 -44.09375 -4.625 -42.359375 -4.921875 -42.453125 Z M -4.921875 -49.21875 C -5.21875 -49.21875 -5.21875 -49.703125 -4.921875 -49.890625 C -4.734375 -50.078125 -4.625 -49.125 -4.921875 -49.21875 Z M 28.859375 -50.1875 C 26.0625 -42.359375 22.1875 -37.4375 18.140625 -31.5625 C 13.703125 -25.375 4.921875 -17.078125 -3.28125 -19.109375 C -5.109375 -26.640625 -2.890625 -33.484375 -1.0625 -40.4375 C -0.671875 -42.171875 0.1875 -44.390625 0.765625 -45.9375 C 1.15625 -47.953125 2.515625 -52.40625 3.765625 -54.515625 C 4.828125 -56.9375 6.078125 -60.890625 7.8125 -63.203125 C 8.6875 -64.84375 9.171875 -66.875 10.125 -68.609375 C 11.96875 -72.46875 12.734375 -72.859375 14.671875 -75.65625 C 16.21875 -77.6875 15.734375 -78.265625 18.328125 -80.96875 C 20.9375 -84.34375 23.640625 -86.078125 23.453125 -88.109375 C 23.15625 -89.453125 24.125 -88.203125 24.703125 -88.296875 C 28.28125 -87.8125 32.515625 -79.328125 31.65625 -75.953125 C 31.078125 -75.5625 32.140625 -66.78125 31.84375 -65.8125 C 31.359375 -60.125 30.78125 -55.578125 28.859375 -50.1875 Z M 34.9375 -60.40625 C 34.546875 -58.28125 35.03125 -56.734375 34.0625 -54.140625 C 33.296875 -51.71875 32.90625 -50.953125 32.421875 -51.234375 C 31.84375 -51.625 31.9375 -51.234375 31.65625 -50.765625 C 31.453125 -50.375 31.359375 -50.1875 31.359375 -50.375 C 32.515625 -54.140625 30.203125 -49.5 31.84375 -55.390625 C 33.578125 -62.140625 33.390625 -69.09375 32.8125 -75.5625 C 33 -76.140625 32.8125 -78.453125 32.421875 -79.421875 C 32.140625 -79.90625 32.421875 -80.484375 32.8125 -80.1875 C 33.484375 -79.609375 33.875 -77.6875 34.734375 -70.34375 C 34.9375 -69.1875 34.84375 -65.234375 34.640625 -64.9375 C 34.15625 -64.359375 35.421875 -61.375 34.9375 -60.40625 Z M 36 -68.796875 C 36.375 -68.421875 35.890625 -66.484375 35.890625 -68.21875 C 35.796875 -69 35.796875 -69.09375 36 -68.796875 Z M 36 -68.796875 "/></g></g></g></svg>